<svg width="35" height="35" viewBox="0 0 35 35" fill="none" xmlns="http://www.w3.org/2000/svg">
<path d="M17.5015 13.125C16.3411 13.125 15.2283 13.586 14.4079 14.4064C13.5874 15.2269 13.1265 16.3397 13.1265 17.5C13.1265 18.6603 13.5874 19.7731 14.4079 20.5936C15.2283 21.4141 16.3411 21.875 17.5015 21.875C18.6618 21.875 19.7746 21.4141 20.5951 20.5936C21.4155 19.7731 21.8765 18.6603 21.8765 17.5C21.8765 16.3397 21.4155 15.2269 20.5951 14.4064C19.7746 13.586 18.6618 13.125 17.5015 13.125ZM17.5015 10.2084C19.4353 10.2084 21.29 10.9766 22.6575 12.344C24.0249 13.7115 24.7931 15.5662 24.7931 17.5C24.7931 19.4339 24.0249 21.2886 22.6575 22.656C21.29 24.0235 19.4353 24.7917 17.5015 24.7917C15.5676 24.7917 13.7129 24.0235 12.3455 22.656C10.978 21.2886 10.2098 19.4339 10.2098 17.5C10.2098 15.5662 10.978 13.7115 12.3455 12.344C13.7129 10.9766 15.5676 10.2084 17.5015 10.2084ZM26.9806 9.84377C26.9806 10.3272 26.7886 10.7909 26.4467 11.1328C26.1049 11.4746 25.6412 11.6667 25.1577 11.6667C24.6742 11.6667 24.2106 11.4746 23.8687 11.1328C23.5269 10.7909 23.3348 10.3272 23.3348 9.84377C23.3348 9.3603 23.5269 8.89664 23.8687 8.55478C24.2106 8.21291 24.6742 8.02085 25.1577 8.02085C25.6412 8.02085 26.1049 8.21291 26.4467 8.55478C26.7886 8.89664 26.9806 9.3603 26.9806 9.84377ZM17.5015 5.83335C13.8935 5.83335 13.3044 5.84356 11.6258 5.91794C10.4825 5.9719 9.71542 6.12502 9.00375 6.4021C8.40851 6.62139 7.87022 6.97178 7.42875 7.42731C6.97269 7.86863 6.6218 8.40693 6.40209 9.00231C6.125 9.7169 5.97188 10.4825 5.91938 11.6244C5.84354 13.2344 5.83334 13.7973 5.83334 17.5C5.83334 21.1094 5.84354 21.6971 5.91792 23.3757C5.97188 24.5175 6.125 25.2861 6.40063 25.9963C6.64854 26.6307 6.94021 27.0871 7.42438 27.5713C7.91584 28.0613 8.37229 28.3544 8.99938 28.5965C9.71979 28.875 10.4869 29.0296 11.6244 29.0821C13.2344 29.1579 13.7973 29.1667 17.5 29.1667C21.1094 29.1667 21.6971 29.1565 23.3756 29.0821C24.516 29.0282 25.2831 28.875 25.9963 28.5994C26.5915 28.3801 27.1298 28.0297 27.5713 27.5742C28.0627 27.0842 28.3558 26.6277 28.5979 25.9992C28.875 25.2817 29.0296 24.5146 29.0821 23.3742C29.1579 21.7656 29.1667 21.2013 29.1667 17.5C29.1667 13.8921 29.1565 13.3029 29.0821 11.6244C29.0281 10.484 28.8736 9.71398 28.5979 9.00231C28.3786 8.40707 28.0282 7.86878 27.5727 7.42731C27.1314 6.97125 26.5931 6.62036 25.9977 6.40065C25.2831 6.12356 24.516 5.97044 23.3756 5.91794C21.7671 5.8421 21.2042 5.83335 17.5 5.83335M17.5 2.91669C21.4623 2.91669 21.9567 2.93127 23.5127 3.00419C25.0644 3.0771 26.1231 3.32065 27.0521 3.68231C28.0146 4.05273 28.8254 4.5544 29.6363 5.36377C30.3781 6.09255 30.9519 6.97446 31.3177 7.94794C31.6779 8.8769 31.9229 9.93565 31.9958 11.4888C32.0644 13.0434 32.0833 13.5377 32.0833 17.5C32.0833 21.4623 32.0688 21.9567 31.9958 23.5113C31.9229 25.0659 31.6779 26.1217 31.3177 27.0521C30.9519 28.0256 30.3781 28.9075 29.6363 29.6363C28.9075 30.3781 28.0256 30.952 27.0521 31.3177C26.1231 31.6779 25.0644 31.9229 23.5127 31.9959C21.9567 32.0644 21.4623 32.0834 17.5 32.0834C13.5377 32.0834 13.0433 32.0688 11.4873 31.9959C9.93563 31.9229 8.87834 31.6779 7.94792 31.3177C6.97444 30.952 6.09253 30.3781 5.36375 29.6363C4.62191 28.9075 4.04807 28.0256 3.68229 27.0521C3.32063 26.1231 3.07708 25.0644 3.00417 23.5113C2.93417 21.9567 2.91667 21.4623 2.91667 17.5C2.91667 13.5377 2.93125 13.0434 3.00417 11.4888C3.07708 9.93419 3.32063 8.87836 3.68229 7.94794C4.04807 6.97446 4.62191 6.09255 5.36375 5.36377C6.09253 4.62193 6.97444 4.04809 7.94792 3.68231C8.87688 3.32065 9.93417 3.0771 11.4873 3.00419C13.0448 2.93565 13.5392 2.91669 17.5015 2.91669" fill="white"/>
</svg>
