<svg width="35" height="35" viewBox="0 0 35 35" fill="none" xmlns="http://www.w3.org/2000/svg">
<path d="M24.2083 8.4875C23.2117 7.34931 22.6623 5.88787 22.6625 4.375H18.1562V22.4583C18.1222 23.4372 17.7093 24.3645 17.0046 25.0447C16.2999 25.7249 15.3586 26.1048 14.3792 26.1042C12.3083 26.1042 10.5875 24.4125 10.5875 22.3125C10.5875 19.8042 13.0083 17.9229 15.5021 18.6958V14.0875C10.4708 13.4167 6.06667 17.325 6.06667 22.3125C6.06667 27.1688 10.0917 30.625 14.3646 30.625C18.9438 30.625 22.6625 26.9063 22.6625 22.3125V13.1396C24.4898 14.4519 26.6837 15.1559 28.9333 15.1521V10.6458C28.9333 10.6458 26.1917 10.7771 24.2083 8.4875Z" fill="white"/>
</svg>
